<svg width="28" height="28" viewBox="0 0 28 28" fill="none" xmlns="http://www.w3.org/2000/svg">
<path d="M14.0002 25.3586C20.4435 25.3586 25.6668 20.1979 25.6668 13.8319C25.6668 7.46586 20.4435 2.30518 14.0002 2.30518C7.55684 2.30518 2.3335 7.46586 2.3335 13.8319C2.3335 20.1979 7.55684 25.3586 14.0002 25.3586Z" stroke="#292D32" stroke-width="1.5" stroke-linecap="round" stroke-linejoin="round"/>
<path d="M9.33353 3.45801H10.5002C8.2252 10.1896 8.2252 17.4745 10.5002 24.2061H9.33353" stroke="#292D32" stroke-width="1.5" stroke-linecap="round" stroke-linejoin="round"/>
<path d="M17.5 3.45801C19.775 10.1896 19.775 17.4745 17.5 24.2061" stroke="#292D32" stroke-width="1.5" stroke-linecap="round" stroke-linejoin="round"/>
<path d="M3.5 18.4427V17.29C10.3133 19.5377 17.6867 19.5377 24.5 17.29V18.4427" stroke="#292D32" stroke-width="1.5" stroke-linecap="round" stroke-linejoin="round"/>
<path d="M3.5 10.3743C10.3133 8.12655 17.6867 8.12655 24.5 10.3743" stroke="#292D32" stroke-width="1.5" stroke-linecap="round" stroke-linejoin="round"/>
</svg>
